<svg width="24" height="24" viewBox="0 0 24 24" fill="none" xmlns="http://www.w3.org/2000/svg">
<g id="Group">
<path id="Vector" d="M0 3.60741C0 3.64388 0.0143039 3.67698 0.0170724 3.71308C0.0198409 3.72511 0.014304 3.73602 0.0161496 3.74767L0.0359903 3.8289C0.0502942 3.9278 0.0673665 4.02557 0.102895 4.11996L4.28515 22.1062C4.33406 22.3183 4.49279 22.503 4.71981 22.6135C4.89053 22.6962 7.63964 24 11.8265 24C13.9582 24 16.4637 23.6619 19.1893 22.6526C19.4638 22.5511 19.6599 22.3473 19.7162 22.1062L23.8985 4.11996C23.9336 4.02557 23.9497 3.9278 23.9659 3.8289L23.9839 3.74767C23.9875 3.73602 23.982 3.72473 23.9839 3.71308C23.9866 3.67698 24 3.64388 24 3.60741C24 3.56341 23.9839 3.52393 23.9802 3.48068C23.9774 3.46564 23.9774 3.45022 23.9728 3.43518C23.6872 1.07888 17.6422 0 12.0009 0C6.35875 0 0.314223 1.07888 0.0267621 3.43555C0.0230708 3.4506 0.0230708 3.46601 0.0203023 3.48106C0.0161496 3.52393 0 3.56341 0 3.60741ZM17.9892 21.435C11.9829 23.5066 7.31618 21.9874 6.02053 21.47L2.39659 5.88211C4.73503 6.78612 8.44849 7.21444 12.0009 7.21444C15.5534 7.21444 19.2668 6.78612 21.6048 5.88211L17.9892 21.435ZM12.0009 1.50832C18.5991 1.50832 22.0413 2.93541 22.141 3.57732L22.1031 3.74316C21.6754 4.42418 18.2531 5.70612 12.0009 5.70612C5.74876 5.70612 2.32599 4.42418 1.89918 3.74316L1.86042 3.57732C1.96009 2.93541 5.40224 1.50832 12.0009 1.50832Z" fill="#1D1D1B" fill-opacity="0.9"/>
</g>
</svg>
