<svg width="24" height="24" viewBox="0 0 24 24" fill="none" xmlns="http://www.w3.org/2000/svg">
<g id="22">
<path id="Vector" d="M15.7271 3.74916H19.5534C19.8648 3.74662 20.1694 3.91502 20.4271 4.23221C20.6848 4.5494 20.8834 5.00053 20.997 5.52627C21.0277 5.66579 21.0807 5.7854 21.1493 5.86963C21.2179 5.95386 21.2988 5.99881 21.3817 5.99866C21.4341 5.99889 21.486 5.98108 21.5347 5.94617C21.5853 5.90981 21.6314 5.85574 21.6704 5.78705C21.7094 5.71836 21.7406 5.6364 21.7621 5.54586C21.7836 5.45532 21.7951 5.35798 21.7958 5.2594C21.7965 5.16083 21.7865 5.06296 21.7664 4.97139C21.591 4.16721 21.2861 3.47743 20.8914 2.99192C20.4967 2.50642 20.0304 2.2477 19.5534 2.24949H15.7271C15.6174 2.24949 15.5122 2.32849 15.4346 2.46911C15.3571 2.60973 15.3135 2.80046 15.3135 2.99932C15.3135 3.19819 15.3571 3.38892 15.4346 3.52954C15.5122 3.67016 15.6174 3.74916 15.7271 3.74916Z" fill="black"/>
<path id="Vector_2" d="M12.418 3.74918H14.4863C14.596 3.74918 14.7012 3.67018 14.7788 3.52956C14.8564 3.38894 14.8999 3.19821 14.8999 2.99935C14.8999 2.80048 14.8564 2.60975 14.7788 2.46913C14.7012 2.32851 14.596 2.24951 14.4863 2.24951H12.418C12.3083 2.24951 12.2031 2.32851 12.1255 2.46913C12.048 2.60975 12.0044 2.80048 12.0044 2.99935C12.0044 3.19821 12.048 3.38894 12.1255 3.52956C12.2031 3.67018 12.3083 3.74918 12.418 3.74918Z" fill="black"/>
<path id="Vector_3" d="M8.6949 3.74918H10.7631C10.8728 3.74918 10.9781 3.67018 11.0556 3.52956C11.1332 3.38894 11.1768 3.19821 11.1768 2.99935C11.1768 2.80048 11.1332 2.60975 11.0556 2.46913C10.9781 2.32851 10.8728 2.24951 10.7631 2.24951H8.6949C8.58519 2.24951 8.47998 2.32851 8.4024 2.46913C8.32483 2.60975 8.28125 2.80048 8.28125 2.99935C8.28125 3.19821 8.32483 3.38894 8.4024 3.52956C8.47998 3.67018 8.58519 3.74918 8.6949 3.74918Z" fill="black"/>
<path id="Vector_4" d="M23.9007 22.7575C23.2627 21.4108 22.7271 19.9153 22.3081 18.3109C21.5325 15.3552 21.2451 12.0557 21.4809 8.81055C21.9697 8.54335 22.3981 7.9981 22.7028 7.2554C23.0075 6.51271 23.1722 5.612 23.1727 4.68646V4.31155C23.1716 3.16866 22.9206 2.07315 22.4748 1.26501C22.029 0.456869 21.4247 0.00198246 20.7942 0H3.21415C2.58367 0.00198246 1.97933 0.456869 1.53352 1.26501C1.0877 2.07315 0.836763 3.16866 0.835669 4.31155V4.68646C0.83586 5.61105 1.00001 6.51104 1.30389 7.25362C1.60777 7.99619 2.03529 8.54202 2.52335 8.81055C2.75716 12.0557 2.46993 15.3542 1.69606 18.3109C1.27407 19.914 0.737207 21.4091 0.0993756 22.7575C0.047493 22.8674 0.0142523 23.0021 0.00366056 23.1455C-0.00693117 23.2888 0.00557821 23.4347 0.0396807 23.5655C0.0737831 23.6962 0.128023 23.8063 0.195862 23.8825C0.263701 23.9587 0.342243 23.9976 0.422021 23.9947H2.90391C2.93135 24.0018 2.9592 24.0018 2.98664 23.9947H3.04455C3.09499 23.9612 3.14136 23.9103 3.18106 23.8447L3.73121 22.8924L4.28136 23.7997C4.31894 23.861 4.3624 23.9093 4.40959 23.9422C4.45678 23.9776 4.50743 23.9955 4.5585 23.9947H6.2131C6.24054 24.0018 6.26839 24.0018 6.29583 23.9947H6.35374C6.40418 23.9612 6.45054 23.9103 6.49024 23.8447L7.04039 22.8924L7.59055 23.7997C7.62813 23.861 7.67159 23.9093 7.71878 23.9422C7.76597 23.9776 7.81661 23.9955 7.86769 23.9947H9.52228C9.54972 24.0018 9.57757 24.0018 9.60501 23.9947H9.66292C9.71336 23.9612 9.75973 23.9103 9.79943 23.8447L10.3496 22.8924L10.8997 23.7997C10.9373 23.861 10.9808 23.9093 11.028 23.9422C11.0752 23.9776 11.1258 23.9955 11.1769 23.9947H12.8315C12.8589 24.0018 12.8868 24.0018 12.9142 23.9947H12.9721C13.0226 23.9612 13.0689 23.9103 13.1086 23.8447L13.6588 22.8924L14.2089 23.7997C14.2465 23.861 14.29 23.9093 14.3371 23.9422C14.3843 23.9776 14.435 23.9955 14.4861 23.9947H16.1407C16.1681 24.0018 16.1959 24.0018 16.2234 23.9947H16.2813C16.3317 23.9612 16.3781 23.9103 16.4178 23.8447L16.968 22.8924L17.5181 23.7997C17.5557 23.861 17.5991 23.9093 17.6463 23.9422C17.6935 23.9776 17.7442 23.9955 17.7952 23.9947H19.4498C19.4773 24.0018 19.5051 24.0018 19.5326 23.9947H19.5905C19.6409 23.9612 19.6873 23.9103 19.727 23.8447L20.2771 22.8924L20.8273 23.7997C20.8649 23.861 20.9083 23.9093 20.9555 23.9422C21.0027 23.9776 21.0534 23.9955 21.1044 23.9947H23.5863C23.6654 23.9947 23.7428 23.9536 23.8094 23.8763C23.876 23.799 23.929 23.6888 23.9621 23.5586C23.9951 23.4284 24.0069 23.2837 23.9961 23.1417C23.9852 22.9998 23.9521 22.8664 23.9007 22.7575ZM1.66297 4.68646V4.31155C1.66297 3.56579 1.82639 2.85058 2.1173 2.32325C2.4082 1.79592 2.80275 1.49967 3.21415 1.49967H20.7942C21.2056 1.49967 21.6001 1.79592 21.891 2.32325C22.1819 2.85058 22.3454 3.56579 22.3454 4.31155V4.68646C22.3454 5.43222 22.1819 6.14743 21.891 6.67476C21.6001 7.20209 21.2056 7.49834 20.7942 7.49834H3.21415C2.80275 7.49834 2.4082 7.20209 2.1173 6.67476C1.82639 6.14743 1.66297 5.43222 1.66297 4.68646ZM21.2658 22.495L20.5543 21.3253C20.4783 21.2009 20.3795 21.1321 20.2771 21.1321C20.1747 21.1321 20.076 21.2009 20 21.3253L19.2885 22.495H17.9566L17.2451 21.3253C17.1691 21.2009 17.0703 21.1321 16.968 21.1321C16.8656 21.1321 16.7668 21.2009 16.6908 21.3253L15.9793 22.495H14.6474L13.9359 21.3253C13.8599 21.2009 13.7612 21.1321 13.6588 21.1321C13.5564 21.1321 13.4576 21.2009 13.3816 21.3253L12.6701 22.495H11.3382L10.6267 21.3253C10.5507 21.2009 10.452 21.1321 10.3496 21.1321C10.2472 21.1321 10.1484 21.2009 10.0724 21.3253L9.36096 22.495H8.02901L7.31754 21.3253C7.24153 21.2009 7.14278 21.1321 7.04039 21.1321C6.93801 21.1321 6.83926 21.2009 6.76325 21.3253L6.05177 22.495H4.71983L4.00835 21.3253C3.93234 21.2009 3.83359 21.1321 3.73121 21.1321C3.62882 21.1321 3.53007 21.2009 3.45406 21.3253L2.74259 22.495H1.27827C1.73189 21.384 2.1253 20.1963 2.45303 18.9483C3.26553 15.8519 3.585 12.4058 3.37547 8.99801H20.6329C20.4226 12.4066 20.7436 15.8537 21.5594 18.9483C21.8842 20.1976 22.2763 21.3857 22.7301 22.495H21.2658Z" fill="black"/>
<path id="Vector_5" d="M6.17584 9.74783C6.12144 9.75631 6.0685 9.78422 6.02008 9.82997C5.97166 9.87571 5.92871 9.93838 5.89372 10.0144C5.85872 10.0903 5.83237 10.1781 5.81619 10.2727C5.80001 10.3672 5.79431 10.4666 5.79942 10.5652C5.91111 12.7622 5.99797 18.8133 5.09208 20.463C5.05331 20.5327 5.02254 20.6156 5.00154 20.707C4.98054 20.7984 4.96973 20.8964 4.96973 20.9953C4.96973 21.0943 4.98054 21.1923 5.00154 21.2837C5.02254 21.3751 5.05331 21.458 5.09208 21.5277C5.13054 21.598 5.17629 21.6538 5.22669 21.6919C5.2771 21.7299 5.33117 21.7495 5.38577 21.7495C5.44038 21.7495 5.49445 21.7299 5.54485 21.6919C5.59526 21.6538 5.64101 21.598 5.67946 21.5277C7.01555 19.0983 6.66808 11.3075 6.62672 10.4302C6.62204 10.3316 6.60665 10.2356 6.58141 10.1478C6.55617 10.0601 6.5216 9.9822 6.47969 9.91877C6.43777 9.85533 6.38934 9.80757 6.33719 9.77823C6.28504 9.74889 6.2302 9.73856 6.17584 9.74783Z" fill="black"/>
<path id="Vector_6" d="M9.46447 9.74783C9.40993 9.76069 9.35735 9.79313 9.3098 9.84327C9.26226 9.89341 9.22071 9.96023 9.18758 10.0398C9.15446 10.1194 9.13042 10.2102 9.11688 10.3068C9.10335 10.4035 9.10057 10.504 9.10873 10.6026C9.27419 12.6872 9.46447 18.5284 8.39726 20.463C8.35849 20.5327 8.32772 20.6156 8.30672 20.707C8.28571 20.7984 8.2749 20.8964 8.2749 20.9953C8.2749 21.0943 8.28571 21.1923 8.30672 21.2837C8.32772 21.3751 8.35849 21.458 8.39726 21.5277C8.43571 21.598 8.48146 21.6538 8.53187 21.6919C8.58228 21.7299 8.63634 21.7495 8.69095 21.7495C8.74556 21.7495 8.79962 21.7299 8.85003 21.6919C8.90044 21.6538 8.94619 21.598 8.98464 21.5277C10.5606 18.6709 9.95258 10.7301 9.92776 10.3927C9.91334 10.1959 9.85648 10.0176 9.76963 9.8967C9.68279 9.77582 9.57305 9.72229 9.46447 9.74783Z" fill="black"/>
<path id="Vector_7" d="M17.9275 10.5652C17.9324 10.4667 17.9266 10.3674 17.9103 10.2731C17.894 10.1787 17.8677 10.0911 17.8327 10.0152C17.7978 9.93929 17.7549 9.87662 17.7066 9.83075C17.6583 9.78488 17.6054 9.7567 17.5511 9.74784C17.4968 9.73898 17.442 9.7496 17.39 9.7791C17.3379 9.80859 17.2896 9.85638 17.2477 9.91975C17.2059 9.98311 17.1713 10.0608 17.146 10.1484C17.1207 10.236 17.1051 10.3317 17.1002 10.4302C17.0589 11.3075 16.6866 19.0983 18.0475 21.5277C18.086 21.598 18.1317 21.6538 18.1821 21.6919C18.2325 21.7299 18.2866 21.7495 18.3412 21.7495C18.3958 21.7495 18.4499 21.7299 18.5003 21.6919C18.5507 21.6538 18.5964 21.598 18.6349 21.5277C18.6736 21.458 18.7044 21.3751 18.7254 21.2837C18.7464 21.1923 18.7572 21.0943 18.7572 20.9954C18.7572 20.8964 18.7464 20.7984 18.7254 20.707C18.7044 20.6156 18.6736 20.5327 18.6349 20.463C17.729 18.8283 17.8159 12.7472 17.9275 10.5652Z" fill="black"/>
<path id="Vector_8" d="M14.6144 10.6027C14.6298 10.4038 14.601 10.202 14.5342 10.0417C14.4675 9.8814 14.3684 9.7757 14.2587 9.74786C14.149 9.72001 14.0377 9.77231 13.9493 9.89325C13.8608 10.0142 13.8025 10.1938 13.7872 10.3927C13.7623 10.7301 13.1543 18.6409 14.7303 21.5277C14.7687 21.598 14.8145 21.6538 14.8649 21.6919C14.9153 21.7299 14.9694 21.7495 15.024 21.7495C15.0786 21.7495 15.1326 21.7299 15.183 21.6919C15.2334 21.6538 15.2792 21.598 15.3177 21.5277C15.3564 21.458 15.3872 21.3751 15.4082 21.2837C15.4292 21.1924 15.44 21.0944 15.44 20.9954C15.44 20.8964 15.4292 20.7984 15.4082 20.707C15.3872 20.6156 15.3564 20.5327 15.3177 20.463C14.2587 18.5359 14.449 12.6947 14.6144 10.6027Z" fill="black"/>
</g>
</svg>
