<svg width="24" height="24" viewBox="0 0 24 24" fill="none" xmlns="http://www.w3.org/2000/svg">
<path d="M16.3727 23.5H7.62752L9.98329 14.75H14.0169L16.3727 23.5Z" fill="#FFE439" stroke="black"/>
<path d="M18.7069 12.9072L18.7069 12.9072L18.7076 12.9113L20.5076 23.1863L20.514 23.2229L20.5258 23.2581C20.5307 23.2727 20.5305 23.2843 20.5271 23.2966C20.5231 23.3111 20.5135 23.3295 20.4966 23.3464L20.4616 23.3815L20.4341 23.4227C20.4118 23.4561 20.3911 23.4702 20.3714 23.4792C20.3473 23.4901 20.3086 23.5 20.2501 23.5H18.9846L16.2334 13.1466L16.2202 13.0971L16.1973 13.0514C16.0013 12.6594 15.6378 12.25 15.0001 12.25H9.00013C8.43414 12.25 7.9068 12.5954 7.76609 13.1496L5.01564 23.5H3.75013C3.69164 23.5 3.65291 23.4901 3.6289 23.4792C3.60916 23.4702 3.58846 23.4561 3.56615 23.4227L3.53869 23.3815L3.50368 23.3464C3.48674 23.3295 3.47711 23.3111 3.47313 23.2966C3.46978 23.2843 3.46959 23.2727 3.47447 23.2581L3.48622 23.2229L3.49263 23.1863L5.29263 12.9113L5.29264 12.9113L5.29332 12.9072C5.55158 11.3576 6.90996 10.25 8.47513 10.25H15.5251C17.0903 10.25 18.4487 11.3576 18.7069 12.9072Z" fill="#FFE439" stroke="black"/>
<path d="M14.2776 3.02525L14.2775 3.02524L14.277 3.03168L13.8667 7.75H10.0585L9.6482 3.03168L9.64802 3.02973C9.58734 2.36224 9.82633 1.74358 10.2764 1.22925C10.6895 0.757141 11.3663 0.5 12.0001 0.5C12.6444 0.5 13.2967 0.762181 13.6251 1.2L13.6364 1.21507L13.6488 1.22925C14.0961 1.74041 14.3369 2.43189 14.2776 3.02525Z" fill="#FFE439" stroke="black"/>
</svg>
