<svg width="24" height="24" viewBox="0 0 24 24" fill="none" xmlns="http://www.w3.org/2000/svg">
<g id="Layer_1">
<path id="Vector" d="M21.552 0.0651453C21.312 -0.0506685 21.024 -0.012064 20.88 0.180959L12.24 10.5656L11.52 10.1796C11.28 10.0637 10.992 10.1023 10.848 10.2954L9.648 11.7623L8.928 11.3763C8.736 11.2605 8.496 11.2991 8.352 11.4149L0.192 17.36C0.048 17.3986 0 17.5144 0 17.6302C0 17.7461 0.096 17.8619 0.192 17.9391L11.28 23.9228C11.376 23.9614 11.472 24 11.568 24C11.616 24 11.664 24 11.712 24C11.856 23.9614 11.952 23.8842 12 23.7684L15.744 15.4298C15.84 15.2754 15.744 15.0823 15.552 14.9665L14.832 14.5805L16.032 13.1135C16.176 12.9205 16.128 12.6889 15.888 12.573L15.168 12.187L23.904 1.80235C24 1.72514 24 1.60933 24 1.53212C23.952 1.41631 23.904 1.3391 23.808 1.30049L21.552 0.0651453ZM11.328 22.9963L9.984 22.2628C10.032 22.2242 10.08 22.1856 10.128 22.147L10.896 21.2591C11.04 21.066 10.992 20.8344 10.752 20.7186C10.512 20.6028 10.224 20.6414 10.08 20.8344L9.312 21.7223C9.264 21.7609 9.264 21.7995 9.216 21.8767L7.728 21.066C7.776 21.0274 7.824 20.9888 7.872 20.9502L8.64 20.0623C8.784 19.8693 8.736 19.6377 8.496 19.5219C8.256 19.4061 7.968 19.4447 7.824 19.6377L7.056 20.5256C7.008 20.5642 7.008 20.6028 6.96 20.68L5.472 19.8693C5.52 19.8307 5.568 19.7921 5.616 19.7535L6.336 18.8656C6.48 18.6726 6.432 18.4409 6.192 18.3251C5.952 18.2093 5.664 18.2479 5.52 18.4409L4.896 19.3288C4.848 19.3674 4.848 19.4061 4.8 19.4833L3.312 18.6726C3.36 18.634 3.408 18.5954 3.456 18.5568L4.224 17.6688C4.368 17.4758 4.32 17.2442 4.08 17.1284C3.84 17.0126 3.552 17.0512 3.408 17.2442L2.64 18.1321C2.592 18.1707 2.592 18.2093 2.592 18.2865L1.248 17.553L8.688 12.1484L9.456 12.573L13.872 14.9665L14.64 15.3912L11.328 22.9963ZM14.064 14.1172L10.416 12.1484L11.376 10.9902L12.096 11.3763L14.304 12.573L15.024 12.9591L14.064 14.1172ZM13.008 10.9902L19.584 3.11491L20.976 3.887L14.448 11.7623L13.008 10.9902ZM21.552 3.26933L20.16 2.49724L21.456 0.953051L22.896 1.72514L21.552 3.26933Z" fill="black"/>
</g>
</svg>
