<svg width="24" height="24" viewBox="0 0 24 24" fill="none" xmlns="http://www.w3.org/2000/svg">
<path d="M23.6278 23.0714C22.1042 23.0714 20.5757 23.0714 19.0521 23.0714C15.9057 23.0714 12.7543 23.0714 9.60794 23.0714C6.97767 23.0714 4.35236 23.0714 1.72208 23.0714C1.27047 23.0714 0.818859 23.0714 0.372209 23.0714C0.496278 23.2261 0.620347 23.3809 0.744417 23.5357C0.744417 20.6817 0.744417 17.8278 0.744417 14.9739C0.744417 12.739 0.744417 10.5041 0.744417 8.26928C0.620347 8.42405 0.496278 8.57882 0.372209 8.73359C1.89578 8.73359 3.42432 8.73359 4.94789 8.73359C8.09429 8.73359 11.2457 8.73359 14.3921 8.73359C17.0223 8.73359 19.6476 8.73359 22.2779 8.73359C22.7295 8.73359 23.1811 8.73359 23.6278 8.73359C23.5037 8.57882 23.3797 8.42405 23.2556 8.26928C23.2556 11.1232 23.2556 13.9772 23.2556 16.8311C23.2556 19.066 23.2556 21.3008 23.2556 23.5357C23.2556 24.1362 24 24.1362 24 23.5357C24 20.6817 24 17.8278 24 14.9739C24 12.739 24 10.5041 24 8.26928C24 8.01546 23.8313 7.80498 23.6278 7.80498C22.1042 7.80498 20.5757 7.80498 19.0521 7.80498C15.9057 7.80498 12.7543 7.80498 9.60794 7.80498C6.97767 7.80498 4.35236 7.80498 1.72208 7.80498C1.27047 7.80498 0.818859 7.80498 0.372209 7.80498C0.168735 7.80498 0 8.01546 0 8.26928C0 11.1232 0 13.9772 0 16.8311C0 19.066 0 21.3008 0 23.5357C0 23.7895 0.168735 24 0.372209 24C1.89578 24 3.42432 24 4.94789 24C8.09429 24 11.2457 24 14.3921 24C17.0223 24 19.6476 24 22.2779 24C22.7295 24 23.1811 24 23.6278 24C24.1092 24 24.1092 23.0714 23.6278 23.0714Z" fill="black"/>
<path d="M23.6278 23.0714C22.1042 23.0714 20.5757 23.0714 19.0521 23.0714C15.9057 23.0714 12.7543 23.0714 9.60794 23.0714C6.97767 23.0714 4.35236 23.0714 1.72208 23.0714C1.27047 23.0714 0.818859 23.0714 0.372209 23.0714C0.496278 23.2262 0.620347 23.3809 0.744417 23.5357C0.744417 20.4527 0.744417 17.3635 0.744417 14.2805C0.744417 13.8843 0.744417 13.4943 0.744417 13.0981C0.620347 13.2528 0.496278 13.4076 0.372209 13.5624C1.89578 13.5624 3.42432 13.5624 4.94789 13.5624C8.09429 13.5624 11.2457 13.5624 14.3921 13.5624C17.0223 13.5624 19.6476 13.5624 22.2779 13.5624C22.7295 13.5624 23.1811 13.5624 23.6278 13.5624C23.5037 13.4076 23.3797 13.2528 23.2556 13.0981C23.2556 16.1811 23.2556 19.2703 23.2556 22.3533C23.2556 22.7495 23.2556 23.1395 23.2556 23.5357C23.2556 24.1362 24 24.1362 24 23.5357C24 20.4527 24 17.3635 24 14.2805C24 13.8843 24 13.4943 24 13.0981C24 12.8443 23.8313 12.6338 23.6278 12.6338C22.1042 12.6338 20.5757 12.6338 19.0521 12.6338C15.9057 12.6338 12.7543 12.6338 9.60794 12.6338C6.97767 12.6338 4.35236 12.6338 1.72208 12.6338C1.27047 12.6338 0.818859 12.6338 0.372209 12.6338C0.168735 12.6338 0 12.8443 0 13.0981C0 16.1811 0 19.2703 0 22.3533C0 22.7495 0 23.1395 0 23.5357C0 23.7895 0.168735 24 0.372209 24C1.89578 24 3.42432 24 4.94789 24C8.09429 24 11.2457 24 14.3921 24C17.0223 24 19.6476 24 22.2779 24C22.7295 24 23.1811 24 23.6278 24C24.1092 24 24.1092 23.0714 23.6278 23.0714Z" fill="black"/>
<path d="M7.44434 8.26929C7.44434 11.1232 7.44434 13.9772 7.44434 16.8311C7.44434 19.066 7.44434 21.3008 7.44434 23.5357C7.44434 24.1362 8.18875 24.1362 8.18875 23.5357C8.18875 20.6817 8.18875 17.8278 8.18875 14.9739C8.18875 12.739 8.18875 10.5041 8.18875 8.26929C8.18875 7.66878 7.44434 7.66878 7.44434 8.26929Z" fill="black"/>
<path d="M23.628 23.0714C21.633 23.0714 19.638 23.0714 17.638 23.0714C14.7397 23.0714 11.8365 23.0714 8.93821 23.0714C8.56104 23.0714 8.18883 23.0714 7.81166 23.0714C7.93573 23.2262 8.0598 23.3809 8.18387 23.5357C8.18387 20.4527 8.18387 17.3635 8.18387 14.2805C8.18387 13.8843 8.18387 13.4943 8.18387 13.0981C8.0598 13.2528 7.93573 13.4076 7.81166 13.5624C9.8067 13.5624 11.8017 13.5624 13.8017 13.5624C16.7 13.5624 19.6032 13.5624 22.5015 13.5624C22.8787 13.5624 23.2509 13.5624 23.628 13.5624C23.504 13.4076 23.3799 13.2528 23.2558 13.0981C23.2558 16.1811 23.2558 19.2703 23.2558 22.3533C23.2558 22.7495 23.2558 23.1395 23.2558 23.5357C23.2558 24.1362 24.0002 24.1362 24.0002 23.5357C24.0002 20.4527 24.0002 17.3635 24.0002 14.2805C24.0002 13.8843 24.0002 13.4943 24.0002 13.0981C24.0002 12.8443 23.8315 12.6338 23.628 12.6338C21.633 12.6338 19.638 12.6338 17.638 12.6338C14.7397 12.6338 11.8365 12.6338 8.93821 12.6338C8.56104 12.6338 8.18883 12.6338 7.81166 12.6338C7.60819 12.6338 7.43945 12.8443 7.43945 13.0981C7.43945 16.1811 7.43945 19.2703 7.43945 22.3533C7.43945 22.7495 7.43945 23.1395 7.43945 23.5357C7.43945 23.7895 7.60819 24 7.81166 24C9.8067 24 11.8017 24 13.8017 24C16.7 24 19.6032 24 22.5015 24C22.8787 24 23.2509 24 23.628 24C24.1094 24 24.1094 23.0714 23.628 23.0714Z" fill="black"/>
<path d="M15.3501 13.0981C15.3501 16.1811 15.3501 19.2703 15.3501 22.3533C15.3501 22.7495 15.3501 23.1395 15.3501 23.5357C15.3501 24.1362 16.0945 24.1362 16.0945 23.5357C16.0945 20.4527 16.0945 17.3635 16.0945 14.2805C16.0945 13.8843 16.0945 13.4943 16.0945 13.0981C16.0945 12.4976 15.3501 12.4976 15.3501 13.0981Z" fill="black"/>
<path d="M14.6452 11.1975C15.3648 11.1975 16.0844 11.1975 16.804 11.1975C17.2854 11.1975 17.2854 10.2689 16.804 10.2689C16.0844 10.2689 15.3648 10.2689 14.6452 10.2689C14.1638 10.2689 14.1638 11.1975 14.6452 11.1975Z" fill="black"/>
<path d="M23.628 12.6338C21.633 12.6338 19.638 12.6338 17.638 12.6338C14.7397 12.6338 11.8365 12.6338 8.93821 12.6338C8.56104 12.6338 8.18883 12.6338 7.81166 12.6338C7.93573 12.7885 8.0598 12.9433 8.18387 13.0981C8.18387 11.4885 8.18387 9.87888 8.18387 8.26928C8.0598 8.42405 7.93573 8.57882 7.81166 8.73359C9.8067 8.73359 11.8017 8.73359 13.8017 8.73359C16.7 8.73359 19.6032 8.73359 22.5015 8.73359C22.8787 8.73359 23.2509 8.73359 23.628 8.73359C23.504 8.57882 23.3799 8.42405 23.2558 8.26928C23.2558 9.87888 23.2558 11.4885 23.2558 13.0981C23.2558 13.6986 24.0002 13.6986 24.0002 13.0981C24.0002 11.4885 24.0002 9.87888 24.0002 8.26928C24.0002 8.01546 23.8315 7.80498 23.628 7.80498C21.633 7.80498 19.638 7.80498 17.638 7.80498C14.7397 7.80498 11.8365 7.80498 8.93821 7.80498C8.56104 7.80498 8.18883 7.80498 7.81166 7.80498C7.60819 7.80498 7.43945 8.01546 7.43945 8.26928C7.43945 9.87888 7.43945 11.4885 7.43945 13.0981C7.43945 13.3519 7.60819 13.5624 7.81166 13.5624C9.8067 13.5624 11.8017 13.5624 13.8017 13.5624C16.7 13.5624 19.6032 13.5624 22.5015 13.5624C22.8787 13.5624 23.2509 13.5624 23.628 13.5624C24.1094 13.5624 24.1094 12.6338 23.628 12.6338Z" fill="black"/>
<path d="M6.4067 21.3689C4.86327 21.3689 3.32481 21.3689 1.78139 21.3689C1.90546 21.5237 2.02953 21.6785 2.1536 21.8332C2.1536 19.4869 2.1536 17.1468 2.1536 14.8005C2.02953 14.9553 1.90546 15.1101 1.78139 15.2649C3.32481 15.2649 4.86327 15.2649 6.4067 15.2649C6.28263 15.1101 6.15856 14.9553 6.03449 14.8005C6.03449 17.1468 6.03449 19.4869 6.03449 21.8332C6.03449 22.4337 6.77891 22.4337 6.77891 21.8332C6.77891 19.4869 6.77891 17.1468 6.77891 14.8005C6.77891 14.5467 6.61017 14.3362 6.4067 14.3362C4.86327 14.3362 3.32481 14.3362 1.78139 14.3362C1.57791 14.3362 1.40918 14.5467 1.40918 14.8005C1.40918 17.1468 1.40918 19.4869 1.40918 21.8332C1.40918 22.0871 1.57791 22.2976 1.78139 22.2976C3.32481 22.2976 4.86327 22.2976 6.4067 22.2976C6.88313 22.2976 6.88313 21.3689 6.4067 21.3689Z" fill="black"/>
<path d="M7.81638 23.0714C5.42432 23.0714 3.03722 23.0714 0.645161 23.0714C0.555831 23.0714 0.461539 23.0714 0.372209 23.0714C0.496278 23.2262 0.620347 23.3809 0.744417 23.5357C0.744417 20.4527 0.744417 17.3635 0.744417 14.2805C0.744417 13.8843 0.744417 13.4943 0.744417 13.0981C0.620347 13.2528 0.496278 13.4076 0.372209 13.5624C2.76427 13.5624 5.15137 13.5624 7.54343 13.5624C7.63275 13.5624 7.72705 13.5624 7.81638 13.5624C7.69231 13.4076 7.56824 13.2528 7.44417 13.0981C7.44417 16.1811 7.44417 19.2703 7.44417 22.3533C7.44417 22.7495 7.44417 23.1395 7.44417 23.5357C7.44417 24.1362 8.18859 24.1362 8.18859 23.5357C8.18859 20.4527 8.18859 17.3635 8.18859 14.2805C8.18859 13.8843 8.18859 13.4943 8.18859 13.0981C8.18859 12.8443 8.01985 12.6338 7.81638 12.6338C5.42432 12.6338 3.03722 12.6338 0.645161 12.6338C0.555831 12.6338 0.461539 12.6338 0.372209 12.6338C0.168735 12.6338 0 12.8443 0 13.0981C0 16.1811 0 19.2703 0 22.3533C0 22.7495 0 23.1395 0 23.5357C0 23.7895 0.168735 24 0.372209 24C2.76427 24 5.15137 24 7.54343 24C7.63275 24 7.72705 24 7.81638 24C8.29777 24 8.29777 23.0714 7.81638 23.0714Z" fill="black"/>
<path d="M14.3474 19.6665C14.3474 18.7688 14.3474 17.8712 14.3474 16.9735C14.3474 16.373 13.603 16.373 13.603 16.9735C13.603 17.8712 13.603 18.7688 13.603 19.6665C13.603 20.2608 14.3474 20.2608 14.3474 19.6665Z" fill="black"/>
<path d="M17.8411 19.6665C17.8411 18.7688 17.8411 17.8712 17.8411 16.9735C17.8411 16.373 17.0967 16.373 17.0967 16.9735C17.0967 17.8712 17.0967 18.7688 17.0967 19.6665C17.0967 20.2608 17.8411 20.2608 17.8411 19.6665Z" fill="black"/>
<path d="M2.97294 10.7332C2.94813 11.4575 2.0995 11.4575 2.07468 10.7332C2.05483 10.0151 2.95309 10.0151 2.97294 10.7332C2.9928 11.3275 3.73721 11.3337 3.71736 10.7332C3.69255 9.89746 3.19131 9.27839 2.52629 9.24743C1.86128 9.21648 1.36004 9.95318 1.33523 10.7332C1.31041 11.5628 1.90098 12.188 2.52629 12.219C3.19131 12.2499 3.69255 11.5132 3.71736 10.7332C3.73721 10.1389 2.9928 10.1389 2.97294 10.7332Z" fill="black"/>
<path d="M6.10918 10.7332C6.08436 11.4575 5.23573 11.4575 5.21091 10.7332C5.1861 10.0151 6.08436 10.0151 6.10918 10.7332C6.12903 11.3275 6.87344 11.3337 6.85359 10.7332C6.82878 9.89746 6.32754 9.27839 5.66253 9.24743C4.99751 9.21648 4.49627 9.95318 4.47146 10.7332C4.44664 11.5628 5.03722 12.188 5.66253 12.219C6.32754 12.2499 6.82878 11.5132 6.85359 10.7332C6.87344 10.1389 6.12903 10.1389 6.10918 10.7332Z" fill="black"/>
<path d="M1.48901 7.58212C1.61804 7.89165 1.74707 8.20119 1.87611 8.50454C1.93566 8.64693 2.06965 8.7336 2.19869 8.7336C3.45923 8.7336 4.72474 8.7336 5.98529 8.7336C6.10936 8.7336 6.24831 8.64693 6.30787 8.50454C6.63541 7.73069 6.99769 6.9878 6.99769 6.07776C6.99769 5.49583 6.99769 4.92009 6.99769 4.33816C6.99769 4.08434 6.82896 3.87386 6.62548 3.87386C4.93318 3.87386 3.24583 3.87386 1.55352 3.87386C1.35005 3.87386 1.18132 4.08434 1.18132 4.33816C1.18628 5.43393 1.08206 6.57302 1.48901 7.58212C1.70241 8.12071 2.34757 7.65022 2.13417 7.11162C1.9307 6.60398 1.9307 6.09014 1.9307 5.53917C1.9307 5.13677 1.9307 4.74056 1.9307 4.33816C1.80663 4.49293 1.68256 4.6477 1.55849 4.80247C3.25079 4.80247 4.93814 4.80247 6.63045 4.80247C6.50638 4.6477 6.38231 4.49293 6.25824 4.33816C6.25824 4.90771 6.25824 5.47107 6.25824 6.04062C6.25824 6.7897 5.93566 7.39639 5.66767 8.03404C5.77685 7.95975 5.88107 7.87927 5.99025 7.80498C4.7297 7.80498 3.46419 7.80498 2.20365 7.80498C2.31283 7.87927 2.41705 7.95975 2.52623 8.03404C2.3972 7.7245 2.26816 7.41497 2.13913 7.11162C1.90588 6.57921 1.26568 7.04971 1.48901 7.58212Z" fill="black"/>
<path d="M7.81619 4.87057C7.41917 4.87057 7.02711 4.87057 6.63009 4.87057C6.1487 4.87057 6.1487 5.79919 6.63009 5.79919C7.02711 5.79919 7.41917 5.79919 7.81619 5.79919C8.29758 5.79919 8.29758 4.87057 7.81619 4.87057Z" fill="black"/>
<path d="M1.55838 4.87057C1.16135 4.87057 0.769295 4.87057 0.372273 4.87057C-0.109117 4.87057 -0.109117 5.79919 0.372273 5.79919C0.769295 5.79919 1.16135 5.79919 1.55838 5.79919C2.03977 5.79919 2.03977 4.87057 1.55838 4.87057Z" fill="black"/>
<path d="M13.8562 1.81236C16.3127 1.81236 18.7743 1.81236 21.2308 1.81236C22.0249 1.81236 22.8189 1.81236 23.613 1.81236C24.0944 1.81236 24.0944 0.883743 23.613 0.883743C21.1564 0.883743 18.6949 0.883743 16.2383 0.883743C15.4442 0.883743 14.6502 0.883743 13.8562 0.883743C13.3748 0.883743 13.3748 1.81236 13.8562 1.81236Z" fill="black"/>
<path d="M17.8709 4.31325C17.8709 3.04415 17.8709 1.77504 17.8709 0.51213C17.8709 -0.0883735 17.1265 -0.0883735 17.1265 0.51213C17.1265 1.78123 17.1265 3.05034 17.1265 4.31325C17.1265 4.91375 17.8709 4.91375 17.8709 4.31325Z" fill="black"/>
<path d="M17.9505 5.33487C17.9257 6.05919 17.077 6.05919 17.0522 5.33487C17.0274 4.61674 17.9257 4.61674 17.9505 5.33487C17.9703 5.92918 18.7148 5.93537 18.6949 5.33487C18.6701 4.49912 18.1688 3.88004 17.5038 3.84909C16.8388 3.81813 16.3376 4.55483 16.3128 5.33487C16.288 6.16443 16.8785 6.78969 17.5038 6.82065C18.1688 6.8516 18.6701 6.1149 18.6949 5.33487C18.7098 4.74055 17.9654 4.74055 17.9505 5.33487Z" fill="black"/>
<path d="M22.3772 4.25769C22.3772 2.98859 22.3772 1.71948 22.3772 0.450377C22.3772 -0.150126 21.6328 -0.150126 21.6328 0.450377C21.6328 1.71948 21.6328 2.98859 21.6328 4.25769C21.6328 4.85819 22.3772 4.85819 22.3772 4.25769Z" fill="black"/>
<path d="M22.4568 5.27917C22.432 6.00349 21.5834 6.00349 21.5586 5.27917C21.5338 4.56105 22.432 4.56105 22.4568 5.27917C22.4767 5.87349 23.2211 5.87968 23.2012 5.27917C23.1764 4.44342 22.6752 3.82435 22.0102 3.79339C21.3452 3.76244 20.8439 4.49914 20.8191 5.27917C20.7943 6.10873 21.3849 6.734 22.0102 6.76495C22.6752 6.79591 23.1764 6.05921 23.2012 5.27917C23.2161 4.68486 22.4717 4.68486 22.4568 5.27917Z" fill="black"/>
</svg>
