<svg width="128" height="128" viewBox="0 0 128 128" fill="none" xmlns="http://www.w3.org/2000/svg">
<path fill-rule="evenodd" clip-rule="evenodd" d="M106.667 26.6667H21.334C18.3885 26.6667 16.0007 29.0545 16.0007 32V96C16.0007 98.9455 18.3885 101.333 21.334 101.333H106.667C109.613 101.333 112.001 98.9455 112.001 96V32C112.001 29.0545 109.613 26.6667 106.667 26.6667ZM21.334 16C12.4974 16 5.33398 23.1634 5.33398 32V96C5.33398 104.837 12.4974 112 21.334 112H106.667C115.504 112 122.667 104.837 122.667 96V32C122.667 23.1634 115.504 16 106.667 16H21.334Z" fill="black"/>
<path fill-rule="evenodd" clip-rule="evenodd" d="M27.9023 39.2523C29.788 36.9895 33.151 36.6838 35.4138 38.5695L60.5852 59.5456C62.563 61.1938 65.436 61.1938 67.4138 59.5456L92.5852 38.5695C94.848 36.6838 98.211 36.9895 100.097 39.2523C101.982 41.5152 101.677 44.8782 99.4138 46.7638L74.2424 67.74C68.3089 72.6846 59.6901 72.6846 53.7565 67.74L28.5852 46.7638C26.3224 44.8782 26.0166 41.5152 27.9023 39.2523Z" fill="black"/>
</svg>
