<svg width="128" height="128" viewBox="0 0 128 128" fill="none" xmlns="http://www.w3.org/2000/svg">
<path fill-rule="evenodd" clip-rule="evenodd" d="M88.7549 86.6372C96.2256 76.2671 101.333 64.8696 101.333 53.3333C101.333 32.7147 84.6186 16 64 16C43.3814 16 26.6667 32.7147 26.6667 53.3333C26.6667 64.8696 31.7744 76.2671 39.2451 86.6372C46.6596 96.9291 55.7768 105.335 62.2767 110.659C63.343 111.532 64.657 111.532 65.7233 110.659C72.2232 105.335 81.3404 96.9291 88.7549 86.6372ZM72.4821 118.911C86.2647 107.622 112 82.6223 112 53.3333C112 26.8236 90.5097 5.33331 64 5.33331C37.4903 5.33331 16 26.8236 16 53.3333C16 82.6223 41.7353 107.622 55.5179 118.911C60.515 123.003 67.485 123.003 72.4821 118.911Z" fill="black"/>
<path fill-rule="evenodd" clip-rule="evenodd" d="M63.9993 42.6667C58.1083 42.6667 53.3327 47.4423 53.3327 53.3333C53.3327 59.2244 58.1083 64 63.9993 64C69.8904 64 74.666 59.2244 74.666 53.3333C74.666 47.4423 69.8904 42.6667 63.9993 42.6667ZM42.666 53.3333C42.666 41.5513 52.2173 32 63.9993 32C75.7814 32 85.3327 41.5513 85.3327 53.3333C85.3327 65.1154 75.7814 74.6667 63.9993 74.6667C52.2173 74.6667 42.666 65.1154 42.666 53.3333Z" fill="black"/>
</svg>
