<svg width="24" height="24" viewBox="0 0 24 24" fill="none" xmlns="http://www.w3.org/2000/svg">
<g id="&#208;&#168;&#208;&#178;&#208;&#176;&#208;&#177;&#209;&#128;&#208;&#176; 1" clip-path="url(#clip0_395_8651)">
<path id="Vector" d="M9.92559 21.1765L9.66088 21.5294C9.64323 21.5532 9.62559 21.5762 9.60706 21.5982L6.75088 18.7474L6.74294 18.7544L5.24294 17.2544L5.25088 17.2474L2.47058 14.4706C2.44595 14.446 2.42268 14.4201 2.40088 14.3929C2.42206 14.3753 2.44323 14.3594 2.46529 14.3426L2.81823 14.0779L5.62235 16.8812L9.92559 21.1765Z" fill="black"/>
<path id="Vector_2" d="M6.75002 17.7485L7.24943 18.2479L7.12149 18.3759L6.7509 18.7473L6.74296 18.7544L5.24561 17.2571L5.25355 17.25L5.62413 16.8785L5.75208 16.7506L6.25149 17.25L6.75002 17.7485Z" fill="black"/>
<path id="Vector_3" d="M6.25167 17.25L6.7502 17.7485L6.62226 17.8765L6.32226 18.1765L5.82373 17.6779L6.12373 17.3779L6.25167 17.25Z" fill="black"/>
<path id="Vector_4" d="M7.66148 16.8379L7.16207 17.3374L7.1206 17.3779L6.62207 16.8794L6.66354 16.8388L7.16295 16.3394L7.66148 16.8379Z" fill="black"/>
<path id="Vector_5" d="M10.7023 20.9594L6.12287 16.38L3.21729 13.4744C3.27981 13.4835 3.3377 13.5126 3.38229 13.5574L6.16434 16.3394L6.66376 16.8388L7.16228 17.3374L7.6617 17.8368L10.6193 20.7944C10.6641 20.839 10.6932 20.8969 10.7023 20.9594Z" fill="black"/>
<path id="Vector_6" d="M11.1175 20.2941L8.16075 17.3374L7.66134 16.8379L7.16281 16.3394L6.66339 15.84L3.88222 13.0588C3.74847 12.9251 3.57943 12.8321 3.39483 12.7908C3.21024 12.7495 3.0177 12.7616 2.8397 12.8256C2.66171 12.8896 2.50559 13.0029 2.38959 13.1524C2.27359 13.3018 2.20248 13.4811 2.18457 13.6694C2.18457 13.7003 2.18457 13.7321 2.18457 13.7638C2.18421 13.9923 2.26275 14.2139 2.40692 14.3912C2.42667 14.4188 2.44788 14.4453 2.47045 14.4706L5.25339 17.25L6.75339 18.75L9.70575 21.7059C9.89296 21.8931 10.1469 21.9983 10.4116 21.9983C10.6764 21.9983 10.9303 21.8931 11.1175 21.7059C11.3047 21.5187 11.4099 21.2648 11.4099 21C11.4099 20.7352 11.3047 20.4813 11.1175 20.2941ZM10.206 21.2047L7.24928 18.2479L6.74987 17.7485L6.25134 17.25L5.75192 16.7506L2.97075 13.9694C2.92985 13.9287 2.90195 13.8768 2.89059 13.8203C2.87923 13.7637 2.88492 13.7051 2.90695 13.6518C2.92897 13.5985 2.96633 13.5529 3.01429 13.5208C3.06225 13.4888 3.11865 13.4717 3.17634 13.4718H3.21692L6.12251 16.3774L10.7019 20.9568C10.7027 20.9703 10.7027 20.9838 10.7019 20.9974C10.7015 21.0358 10.6936 21.0737 10.6784 21.109C10.6633 21.1443 10.6413 21.1762 10.6137 21.2029C10.5866 21.23 10.5545 21.2515 10.5192 21.2662C10.4838 21.2808 10.4459 21.2884 10.4077 21.2884C10.3694 21.2884 10.3315 21.2808 10.2961 21.2662C10.2608 21.2515 10.2287 21.23 10.2016 21.2029L10.206 21.2047Z" fill="black"/>
<path id="Vector_7" d="M22.9792 1.02087C22.7853 0.822692 22.5208 0.709458 22.2436 0.705984C21.9664 0.702511 21.6991 0.809082 21.5003 1.00234L6.66357 15.84L7.16299 16.3394L21.9865 1.51587C22.0527 1.44986 22.1423 1.4128 22.2358 1.4128C22.3292 1.4128 22.4189 1.44986 22.485 1.51587C22.551 1.58203 22.5881 1.67168 22.5881 1.76513C22.5881 1.85859 22.551 1.94823 22.485 2.0144L7.66152 16.8379L8.16093 17.3373L22.9977 2.49969C23.191 2.30093 23.2975 2.03366 23.294 1.75645C23.2906 1.47925 23.1773 1.21473 22.9792 1.02087Z" fill="black"/>
<path id="Vector_8" d="M6.7509 18.7474L5.25355 17.25L5.24561 17.2571L6.74296 18.7544L6.7509 18.7474Z" fill="black"/>
<path id="Vector_9" d="M9.60609 21.6026C9.06785 22.2829 8.36197 22.5882 7.88991 22.5882C7.8079 22.5941 7.72554 22.5836 7.64766 22.5572C7.56978 22.5308 7.49795 22.4892 7.43638 22.4347L1.5652 16.5635C1.41961 16.4179 1.40285 16.1903 1.4152 16.0253C1.45403 15.4703 1.83873 14.8359 2.40167 14.3903C2.25788 14.2135 2.17936 13.9926 2.17932 13.7647C2.17932 13.7329 2.17932 13.7012 2.17932 13.6703L2.03814 13.7762C0.786967 14.715 0.314026 16.3112 1.06579 17.0629L6.93697 22.9341C7.6852 23.6823 9.26903 23.2173 10.2114 21.9759C10.0198 21.938 9.84382 21.844 9.70579 21.7059L9.60609 21.6026Z" fill="black"/>
</g>
<defs>
<clipPath id="clip0_395_8651">
<rect width="24" height="24" fill="white"/>
</clipPath>
</defs>
</svg>
