<svg width="24" height="24" viewBox="0 0 24 24" fill="none" xmlns="http://www.w3.org/2000/svg">
<g id="Group 81">
<path id="Vector" d="M2.1998 19.6721C2.973 19.6721 3.5998 19.0555 3.5998 18.295C3.5998 17.5345 2.973 16.918 2.1998 16.918C1.42661 16.918 0.799805 17.5345 0.799805 18.295C0.799805 19.0555 1.42661 19.6721 2.1998 19.6721Z" fill="black"/>
<path id="Vector_2" d="M4 21.6393L6 22.3845C6.2176 22.4915 6.4812 22.3841 6.5584 22.1571L7.2 19.2787H6.2824L5.4908 17.9304C5.552 17.893 5.6124 17.856 5.6768 17.8178L4.5384 15.8782C4.162 16.0828 3.8116 16.2543 3.6412 16.3176L4.8412 18.362C4.908 18.3081 5.0188 18.231 5.1536 18.1428L5.9456 19.4919L5.6 20.8525L4.4268 19.9869C4.15 19.7827 3.8132 19.6721 3.4668 19.6721H2.2H1.2C0.5372 19.6721 0 20.2005 0 20.8525V24H4V21.6393Z" fill="black"/>
<path id="Vector_3" d="M6.02223 17.6192C6.34823 17.4378 6.67543 17.2725 6.92023 17.1817C7.80863 16.8512 8.59583 16.8468 9.05223 16.8795L7.05223 13.4723C6.85263 13.8775 6.45543 14.5456 5.72023 15.1373C5.51783 15.3002 5.20863 15.4966 4.88623 15.6834L6.02223 17.6192Z" fill="black"/>
<path id="Vector_4" d="M11.2574 15.2121L12.055 15.2695C12.1114 14.511 11.9318 13.7587 11.5366 13.0938C11.1362 12.4198 10.5606 11.8958 9.87143 11.5782L9.53223 12.2912C10.0734 12.5402 10.5274 12.9553 10.8458 13.4908C11.159 14.0176 11.3014 14.6129 11.2574 15.2121Z" fill="black"/>
<path id="Vector_5" d="M10.6233 10.1548L10.2617 10.8563C11.0753 11.2623 11.7557 11.8997 12.2293 12.7C12.7045 13.5022 12.9293 14.4016 12.8797 15.3014L13.6781 15.3443C13.7365 14.2903 13.4741 13.239 12.9201 12.3038C12.3693 11.3729 11.5749 10.6297 10.6233 10.1548Z" fill="black"/>
<path id="Vector_6" d="M10.1538 13.8857C9.9234 13.4935 9.58941 13.1701 9.18821 12.9509L8.7998 13.6391C9.0746 13.789 9.303 14.0101 9.4606 14.2792C9.619 14.5487 9.7014 14.8528 9.699 15.1589L10.499 15.1648C10.5026 14.7187 10.383 14.2764 10.1538 13.8857Z" fill="black"/>
<path id="Vector_7" d="M12.4567 18.408L12.3379 19.1862C12.6171 19.2275 12.9015 19.2554 13.1835 19.2688L13.2227 18.4827C12.9671 18.4705 12.7095 18.4453 12.4567 18.408Z" fill="black"/>
<path id="Vector_8" d="M11.703 18.2569C11.4558 18.1944 11.2086 18.1188 10.9686 18.0315L10.6914 18.7696C10.957 18.866 11.2306 18.9498 11.5038 19.019L11.703 18.2569Z" fill="black"/>
<path id="Vector_9" d="M9.16553 18.035C9.40713 18.1825 9.65713 18.3191 9.90953 18.4406L10.2611 17.734C10.0331 17.6239 9.80633 17.5003 9.58793 17.3669L9.16553 18.035Z" fill="black"/>
<path id="Vector_10" d="M20.2476 14.642L20.9468 15.0244C21.084 14.782 21.21 14.5294 21.322 14.2733L20.5868 13.9629C20.4856 14.1942 20.3716 14.4228 20.2476 14.642Z" fill="black"/>
<path id="Vector_11" d="M5.37402 12.1995C5.43082 12.4705 5.50282 12.7432 5.58842 13.0095L6.35082 12.7723C6.27402 12.5319 6.20882 12.2856 6.15762 12.0409L5.37402 12.1995Z" fill="black"/>
<path id="Vector_12" d="M20.8545 13.2532L21.6177 13.4892C21.7021 13.2248 21.7737 12.9522 21.8301 12.6783L21.0465 12.5214C20.9953 12.7684 20.9305 13.0147 20.8545 13.2532Z" fill="black"/>
<path id="Vector_13" d="M5.2442 11.3728L6.0402 11.2925C6.0142 11.0439 6.0006 10.7897 6.0002 10.5367L5.2002 10.5379C5.201 10.8169 5.2158 11.0982 5.2442 11.3728Z" fill="black"/>
<path id="Vector_14" d="M22 11.0163V10.9836L21.2 11.0163C21.2 11.2685 21.1872 11.5231 21.1616 11.7729L21.9576 11.8508C21.986 11.575 22 11.2945 22 11.0163Z" fill="black"/>
<path id="Vector_15" d="M5.24072 9.70312L6.03672 9.77984C6.06152 9.52961 6.09992 9.2778 6.15072 9.0319L5.36632 8.8761C5.31032 9.14797 5.26792 9.42653 5.24072 9.70312Z" fill="black"/>
<path id="Vector_16" d="M5.57715 8.06515L6.34115 8.29846C6.41715 8.05728 6.50635 7.81886 6.60635 7.58909L5.87115 7.27905C5.76035 7.534 5.66155 7.7984 5.57715 8.06515Z" fill="black"/>
<path id="Vector_17" d="M6.24463 6.52723L6.94463 6.90848C7.06943 6.68658 7.20623 6.47018 7.35103 6.26559L6.69383 5.81628C6.53423 6.04291 6.38303 6.28212 6.24463 6.52723Z" fill="black"/>
<path id="Vector_18" d="M16.2163 3.99548C16.4559 4.08203 16.6939 4.18157 16.9243 4.29174L17.2743 3.58433C17.0199 3.46236 16.7567 3.3522 16.4915 3.25659L16.2163 3.99548Z" fill="black"/>
<path id="Vector_19" d="M15.4819 3.77158L15.6787 3.00909C15.4043 2.94063 15.1239 2.88516 14.8455 2.84424L14.7275 3.62286C14.9799 3.65945 15.2335 3.70981 15.4819 3.77158Z" fill="black"/>
<path id="Vector_20" d="M10.4002 0C8.633 0 7.2002 1.40931 7.2002 3.14754C7.2002 4.88577 8.633 6.29508 10.4002 6.29508C12.1674 6.29508 13.6002 4.88577 13.6002 3.14754C13.6002 1.40931 12.1674 0 10.4002 0ZM10.4002 5.90163C9.6182 5.90163 8.9122 5.5857 8.4042 5.07737C8.4246 4.22596 9.1294 3.54098 10.0002 3.54098H10.4002C9.7374 3.54098 9.2002 3.01259 9.2002 2.36065C9.2002 1.70872 9.7374 1.18033 10.4002 1.18033C11.063 1.18033 11.6002 1.70872 11.6002 2.36065C11.6002 3.01259 11.063 3.54098 10.4002 3.54098H10.8002C11.671 3.54098 12.3758 4.22596 12.3962 5.07737C11.8882 5.5857 11.1822 5.90163 10.4002 5.90163Z" fill="black"/>
<path id="Vector_21" d="M20.8001 3.54102C19.0329 3.54102 17.6001 4.95033 17.6001 6.68855C17.6001 8.42678 19.0329 9.83609 20.8001 9.83609C22.5673 9.83609 24.0001 8.42678 24.0001 6.68855C24.0001 4.95033 22.5673 3.54102 20.8001 3.54102ZM20.8001 9.44265C20.0181 9.44265 19.3121 9.12672 18.8041 8.61839C18.8245 7.76698 19.5293 7.082 20.4001 7.082H20.8001C20.1373 7.082 19.6001 6.5536 19.6001 5.90167C19.6001 5.24974 20.1373 4.72134 20.8001 4.72134C21.4629 4.72134 22.0001 5.24974 22.0001 5.90167C22.0001 6.5536 21.4629 7.082 20.8001 7.082H21.2001C22.0709 7.082 22.7757 7.76698 22.7961 8.61839C22.2881 9.12672 21.5821 9.44265 20.8001 9.44265Z" fill="black"/>
<path id="Vector_22" d="M14.7998 18.4918C14.7998 20.23 16.2326 21.6393 17.9998 21.6393C19.767 21.6393 21.1998 20.23 21.1998 18.4918C21.1998 16.7535 19.767 15.3442 17.9998 15.3442C16.2326 15.3442 14.7998 16.7535 14.7998 18.4918ZM19.1998 17.7049C19.1998 18.3568 18.6626 18.8852 17.9998 18.8852H18.3998C19.2706 18.8852 19.9754 19.5702 19.9958 20.4216C19.4878 20.9299 18.7818 21.2459 17.9998 21.2459C17.2178 21.2459 16.5118 20.9299 16.0038 20.4216C16.0242 19.5702 16.729 18.8852 17.5998 18.8852H17.9998C17.337 18.8852 16.7998 18.3568 16.7998 17.7049C16.7998 17.053 17.337 16.5246 17.9998 16.5246C18.6626 16.5246 19.1998 17.053 19.1998 17.7049Z" fill="black"/>
</g>
</svg>
