<svg width="128" height="128" viewBox="0 0 128 128" fill="none" xmlns="http://www.w3.org/2000/svg">
<g clip-path="url(#clip0_501_7142)">
<path fill-rule="evenodd" clip-rule="evenodd" d="M24.7871 12.5463C31.672 5.66131 43.0587 6.47055 48.9008 14.26L58.5982 27.1899C63.3757 33.5598 62.7422 42.4733 57.1119 48.1036L49.9623 55.2533C50.6551 57.0568 52.9361 61.0146 59.8823 67.9607C66.8284 74.9069 70.7862 77.1878 72.5897 77.8807L79.7394 70.731C85.3696 65.1008 94.2831 64.4673 100.653 69.2447L113.583 78.9422C121.372 84.7843 122.182 96.171 115.297 103.056C113.058 105.294 112.68 105.673 108.944 109.409C105.137 113.216 97.0537 116.774 88.8696 117.13C76.0626 117.686 58.6664 112 37.2548 90.5882C15.8432 69.1765 10.1565 51.7804 10.7133 38.9734C11.0231 31.8491 13.2881 24.0244 18.4643 18.9286C22.1699 15.1634 22.6518 14.6815 24.7871 12.5463ZM21.3699 39.4367C20.984 48.3143 24.7253 62.9737 44.7973 83.0457C64.8693 103.118 79.5287 106.859 88.4063 106.473C96.6935 106.113 101.139 102.108 101.402 101.866L107.754 95.5135C110.049 93.2185 109.78 89.4229 107.183 87.4756L94.2531 77.7781C92.1298 76.1856 89.1586 76.3968 87.2818 78.2735C84.4542 81.1012 82.524 83.06 78.7456 86.8241C70.8969 94.643 57.4618 80.6253 52.3398 75.5032C47.6327 70.7961 33.2878 56.9345 41.0113 49.1194C41.0266 49.1041 43.1068 47.0238 49.5695 40.5611C51.4462 38.6844 51.6574 35.7132 50.0649 33.5899L40.3674 20.66C38.4201 18.0635 34.6245 17.7938 32.3295 20.0887C30.2173 22.201 27.8267 24.5915 25.9833 26.4477C22.1894 30.2679 21.573 34.7669 21.3699 39.4367Z" fill="black"/>
</g>
<defs>
<clipPath id="clip0_501_7142">
<rect width="128" height="128" fill="white"/>
</clipPath>
</defs>
</svg>
