<svg width="152" height="24" viewBox="0 0 152 24" fill="none" xmlns="http://www.w3.org/2000/svg">
<path d="M11.0489 2.92705C11.3483 2.00574 12.6517 2.00574 12.9511 2.92705L14.4697 7.60081C14.6035 8.01284 14.9875 8.2918 15.4207 8.2918H20.335C21.3037 8.2918 21.7065 9.53141 20.9228 10.1008L16.947 12.9894C16.5966 13.244 16.4499 13.6954 16.5838 14.1074L18.1024 18.7812C18.4017 19.7025 17.3472 20.4686 16.5635 19.8992L12.5878 17.0106C12.2373 16.756 11.7627 16.756 11.4122 17.0106L7.43648 19.8992C6.65276 20.4686 5.59828 19.7025 5.89763 18.7812L7.41623 14.1074C7.5501 13.6954 7.40345 13.244 7.05296 12.9894L3.07722 10.1008C2.29351 9.53141 2.69628 8.2918 3.66501 8.2918H8.57929C9.01252 8.2918 9.39647 8.01284 9.53035 7.60081L11.0489 2.92705Z" fill="#DDDBDB"/>
<path d="M43.0489 2.92705C43.3483 2.00574 44.6517 2.00574 44.9511 2.92705L46.4697 7.60081C46.6035 8.01284 46.9875 8.2918 47.4207 8.2918H52.335C53.3037 8.2918 53.7065 9.53141 52.9228 10.1008L48.947 12.9894C48.5966 13.244 48.4499 13.6954 48.5838 14.1074L50.1024 18.7812C50.4017 19.7025 49.3472 20.4686 48.5635 19.8992L44.5878 17.0106C44.2373 16.756 43.7627 16.756 43.4122 17.0106L39.4365 19.8992C38.6528 20.4686 37.5983 19.7025 37.8976 18.7812L39.4162 14.1074C39.5501 13.6954 39.4034 13.244 39.053 12.9894L35.0772 10.1008C34.2935 9.53141 34.6963 8.2918 35.665 8.2918H40.5793C41.0125 8.2918 41.3965 8.01284 41.5303 7.60081L43.0489 2.92705Z" fill="#DDDBDB"/>
<path d="M139.049 2.92705C139.348 2.00574 140.652 2.00574 140.951 2.92705L142.47 7.60081C142.604 8.01284 142.987 8.2918 143.421 8.2918H148.335C149.304 8.2918 149.706 9.53141 148.923 10.1008L144.947 12.9894C144.597 13.244 144.45 13.6954 144.584 14.1074L146.102 18.7812C146.402 19.7025 145.347 20.4686 144.564 19.8992L140.588 17.0106C140.237 16.756 139.763 16.756 139.412 17.0106L135.436 19.8992C134.653 20.4686 133.598 19.7025 133.898 18.7812L135.416 14.1074C135.55 13.6954 135.403 13.244 135.053 12.9894L131.077 10.1008C130.294 9.53141 130.696 8.2918 131.665 8.2918H136.579C137.013 8.2918 137.396 8.01284 137.53 7.60081L139.049 2.92705Z" fill="#DDDBDB"/>
<path d="M107.049 2.92705C107.348 2.00574 108.652 2.00574 108.951 2.92705L110.47 7.60081C110.604 8.01284 110.987 8.2918 111.421 8.2918H116.335C117.304 8.2918 117.706 9.53141 116.923 10.1008L112.947 12.9894C112.597 13.244 112.45 13.6954 112.584 14.1074L114.102 18.7812C114.402 19.7025 113.347 20.4686 112.564 19.8992L108.588 17.0106C108.237 16.756 107.763 16.756 107.412 17.0106L103.436 19.8992C102.653 20.4686 101.598 19.7025 101.898 18.7812L103.416 14.1074C103.55 13.6954 103.403 13.244 103.053 12.9894L99.0772 10.1008C98.2935 9.53141 98.6963 8.2918 99.665 8.2918H104.579C105.013 8.2918 105.396 8.01284 105.53 7.60081L107.049 2.92705Z" fill="#DDDBDB"/>
<path d="M75.0489 2.92705C75.3483 2.00574 76.6517 2.00574 76.9511 2.92705L78.4697 7.60081C78.6035 8.01284 78.9875 8.2918 79.4207 8.2918H84.335C85.3037 8.2918 85.7065 9.53141 84.9228 10.1008L80.947 12.9894C80.5966 13.244 80.4499 13.6954 80.5838 14.1074L82.1024 18.7812C82.4017 19.7025 81.3472 20.4686 80.5635 19.8992L76.5878 17.0106C76.2373 16.756 75.7627 16.756 75.4122 17.0106L71.4365 19.8992C70.6528 20.4686 69.5983 19.7025 69.8976 18.7812L71.4162 14.1074C71.5501 13.6954 71.4034 13.244 71.053 12.9894L67.0772 10.1008C66.2935 9.53141 66.6963 8.2918 67.665 8.2918H72.5793C73.0125 8.2918 73.3965 8.01284 73.5303 7.60081L75.0489 2.92705Z" fill="#DDDBDB"/>
</svg>
