<svg width="128" height="128" viewBox="0 0 128 128" fill="none" xmlns="http://www.w3.org/2000/svg">
<path fill-rule="evenodd" clip-rule="evenodd" d="M63.9994 106.667C87.5635 106.667 106.666 87.5642 106.666 64C106.666 40.4359 87.5635 21.3334 63.9994 21.3334C40.4352 21.3334 21.3327 40.4359 21.3327 64C21.3327 87.5642 40.4352 106.667 63.9994 106.667ZM63.9994 117.333C93.4545 117.333 117.333 93.4552 117.333 64C117.333 34.5448 93.4545 10.6667 63.9994 10.6667C34.5442 10.6667 10.666 34.5448 10.666 64C10.666 93.4552 34.5442 117.333 63.9994 117.333Z" fill="black"/>
<path fill-rule="evenodd" clip-rule="evenodd" d="M63.9993 32C66.9449 32 69.3327 34.3878 69.3327 37.3333V61.7909L81.1039 73.5621C83.1867 75.6449 83.1867 79.0218 81.1039 81.1046C79.0211 83.1874 75.6442 83.1874 73.5614 81.1046L60.2281 67.7712C59.2279 66.771 58.666 65.4145 58.666 64V37.3333C58.666 34.3878 61.0538 32 63.9993 32Z" fill="black"/>
</svg>
